<svg xmlns="http://www.w3.org/2000/svg" viewBox="0 0 32 32" fill="none">
  <rect width="32" height="32" rx="6" fill="#E8663C"/>
  <path
    d="M10.5 7c-2 0-3.5 1.5-3.5 3.5v3.5c0 1-.6 1.8-1.5 2v0c.9.2 1.5 1 1.5 2v3.5c0 2 1.5 3.5 3.5 3.5"
    stroke="#fff"
    stroke-width="1.8"
    stroke-linecap="round"
    stroke-linejoin="round"
  />
  <path
    d="M21.5 7c2 0 3.5 1.5 3.5 3.5v3.5c0 1 .6 1.8 1.5 2v0c-.9.2-1.5 1-1.5 2v3.5c0 2-1.5 3.5-3.5 3.5"
    stroke="#fff"
    stroke-width="1.8"
    stroke-linecap="round"
    stroke-linejoin="round"
  />
  <line x1="12" y1="12.5" x2="18" y2="12.5" stroke="#fff" stroke-width="1.6" stroke-linecap="round" opacity="0.9"/>
  <line x1="12" y1="16" x2="20" y2="16" stroke="#fff" stroke-width="1.6" stroke-linecap="round" opacity="0.9"/>
  <line x1="12" y1="19.5" x2="16" y2="19.5" stroke="#fff" stroke-width="1.6" stroke-linecap="round" opacity="0.9"/>
  <circle cx="19" cy="19.5" r="1.2" fill="#fff" opacity="0.9"/>
</svg>
