<svg xmlns="http://www.w3.org/2000/svg" xmlns:xlink="http://www.w3.org/1999/xlink" width="459" height="945"><defs><filter x="-.8%" y="-.4%" width="101.5%" height="100.7%" filterUnits="objectBoundingBox" id="b"><feGaussianBlur stdDeviation="3" in="SourceAlpha" result="shadowBlurInner1"/><feOffset dy="1" in="shadowBlurInner1" result="shadowOffsetInner1"/><feComposite in="shadowOffsetInner1" in2="SourceAlpha" operator="arithmetic" k2="-1" k3="1" result="shadowInnerInner1"/><feColorMatrix values="0 0 0 0 0 0 0 0 0 0 0 0 0 0 0 0 0 0 0.133520154 0" in="shadowInnerInner1"/></filter><filter x="-1.3%" y="-12.5%" width="102.6%" height="125%" filterUnits="objectBoundingBox" id="d"><feGaussianBlur stdDeviation=".5" in="SourceAlpha" result="shadowBlurInner1"/><feOffset dy="1" in="shadowBlurInner1" result="shadowOffsetInner1"/><feComposite in="shadowOffsetInner1" in2="SourceAlpha" operator="arithmetic" k2="-1" k3="1" result="shadowInnerInner1"/><feColorMatrix values="0 0 0 0 0.402503189 0 0 0 0 0.402503189 0 0 0 0 0.402503189 0 0 0 0.228940217 0" in="shadowInnerInner1"/></filter><filter x="-150%" y="-150%" width="400%" height="400%" filterUnits="objectBoundingBox" id="e"><feGaussianBlur stdDeviation="1" in="SourceGraphic"/></filter><path d="M0 49.995C0 22.383 22.389 0 49.995 0h355.01C432.617 0 455 22.384 455 49.995v845.01C455 922.617 432.611 945 405.005 945H49.995C22.383 945 0 922.616 0 895.005V49.995z" id="a"/><path d="M190 57c0-2.21 1.785-4 4.006-4h67.988A4.006 4.006 0 0 1 266 57c0 2.21-1.785 4-4.006 4h-67.988A4.006 4.006 0 0 1 190 57z" id="c"/></defs><g fill="none" fill-rule="evenodd"><g transform="translate(2)"><use fill="#FFF" xlink:href="#a"/><use fill="#000" filter="url(#b)" xlink:href="#a"/><use fill="#DDD" xlink:href="#c"/><use fill="#000" filter="url(#d)" xlink:href="#c"/><circle stroke="#D8D8D8" stroke-width="4" fill="#F9F9F9" cx="228" cy="891" r="30"/></g><g transform="translate(167 52)"><circle fill="#C2C2C2" cx="5" cy="5" r="5"/><circle fill="#595959" filter="url(#e)" cx="5" cy="5" r="1"/></g><circle fill="#D8D8D8" cx="230.5" cy="36.5" r="3.5"/><path d="M457 142h1c.552 0 1 .455 1 1.004v43.992a1 1 0 0 1-1 1.004h-1v-46zM0 234.009C0 233.452.444 233 1 233h1v40H1c-.552 0-1-.45-1-1.009V234.01zm0-60C0 173.452.444 173 1 173h1v40H1c-.552 0-1-.45-1-1.009V174.01zm0-70.017A.993.993 0 0 1 1 103h1v20H1c-.552 0-1-.455-1-.992v-18.016z" fill="#FFF"/></g><script xmlns=""/></svg>
